/vscmnt/brussel_pixiu_data/_data_brussel/112/vsc11236/PredSimResults/SUBJ09mtu3D/weighted-trackIG/worker_01.mot
version=1
nRows=4
nColumns=50
inDegrees=yes
endheader
                time	         pelvis_tilt	         pelvis_list	     pelvis_rotation	           pelvis_tx	           pelvis_ty	           pelvis_tz	       hip_flexion_r	     hip_adduction_r	      hip_rotation_r	        knee_angle_r	       ankle_angle_r	         mtp_angle_r	       hip_flexion_l	     hip_adduction_l	      hip_rotation_l	        knee_angle_l	       ankle_angle_l	         mtp_angle_l	    lumbar_extension	      lumbar_bending	     lumbar_rotation	 ercspn_r/activation	 intobl_r/activation	 extobl_r/activation	    abd_r/activation	    add_r/activation	hamstrings_r/activation	bifemsh_r/activation	glut_max_r/activation	iliopsoas_r/activation	rect_fem_r/activation	  vasti_r/activation	gastroc_r/activation	 soleus_r/activation	tib_ant_r/activation	 ercspn_l/activation	 intobl_l/activation	 extobl_l/activation	    abd_l/activation	    add_l/activation	hamstrings_l/activation	bifemsh_l/activation	glut_max_l/activation	iliopsoas_l/activation	rect_fem_l/activation	  vasti_l/activation	gastroc_l/activation	 soleus_l/activation	tib_ant_l/activation	
          1.90406427	         -7.30250081	          4.54437461	         -7.42746085	          2.26583648	          0.98192721	          0.01165327	        -11.34716499	         -4.89037821	          5.17132446	         -6.14229214	         10.75635401	         26.86819885	         30.86885084	          1.48830266	         -5.00595979	         -1.73862134	          6.55149609	          0.21191862	         -0.87454649	         -2.86058078	          3.79968987	          0.04005596	          0.00999999	          0.00999999	          0.05624872	          0.00999999	          0.01904671	          0.13407714	          0.04642658	          0.46526877	          0.01211563	          0.01000001	          0.32831345	          0.27737534	          0.01613987	          0.09467782	          0.14430013	          0.03431710	          0.01533431	          0.05730829	          0.13392811	          0.22668633	          0.01022418	          0.12154192	          0.00999999	          0.00999999	          0.00999999	          0.00999999	          0.26049907	
          1.91675803	         -7.39606488	          4.49289010	         -7.44408317	          2.28385980	          0.97988531	          0.01147251	        -11.52471897	         -4.85537730	          4.79467987	         -7.58539854	         10.08844565	         28.88469634	         30.96744151	          1.58487498	         -4.81785797	         -3.38653375	          6.14374075	          0.21948047	         -0.59459371	         -3.18610123	          3.93690185	          0.07731111	          0.00999999	          0.00999999	          0.04642659	          0.02075033	          0.01982646	          0.11066464	          0.03831959	          0.45921780	          0.01000001	          0.01583761	          0.30118883	          0.26012423	          0.01332153	          0.07814521	          0.11910249	          0.02832466	          0.01265664	          0.08557055	          0.11519495	          0.18710244	          0.06125147	          0.10031831	          0.00999999	          0.00999999	          0.02248641	          0.01467885	          0.27124256	
          1.92945179	         -7.46878586	          4.44188672	         -7.41292362	          2.30230729	          0.97808951	          0.01121425	        -11.59944053	         -4.81476531	          4.39253507	         -9.28214908	          9.25053952	         30.95041849	         30.90394574	          1.67701724	         -4.61813409	         -5.01185319	          5.68122487	          0.20301076	         -0.29222929	         -3.52300885	          4.04639994	          0.07470425	          0.00999999	          0.00999999	          0.03831959	          0.01712692	          0.01636437	          0.09134041	          0.03162823	          0.44243379	          0.01198886	          0.02154682	          0.26211152	          0.23141671	          0.01099533	          0.06475290	          0.09830485	          0.02337862	          0.06335150	          0.07062825	          0.09905246	          0.15443067	          0.10846725	          0.08280076	          0.00999999	          0.00999999	          0.01855984	          0.01211564	          0.32247422	
          1.94214555	         -7.52356824	          4.38298889	         -7.33352724	          2.32086334	          0.97679523	          0.01086075	        -11.47349297	         -4.75449456	          3.97231949	        -11.35674684	          8.20485605	         33.01794329	         30.70779835	          1.78047000	         -4.44996174	         -6.39837738	          5.04710096	          0.18182058	         -0.00163949	         -3.85925222	          4.12284532	          0.11285872	          0.00999999	          0.00999999	          0.03162824	          0.02543074	          0.01735818	          0.07539058	          0.02610532	          0.42398828	          0.01211562	          0.01778432	          0.21634169	          0.19100680	          0.00999999	          0.07199838	          0.08113889	          0.01929625	          0.12262802	          0.10175597	          0.08175595	          0.12746404	          0.15732636	          0.06834212	          0.00999999	          0.00999999	          0.01531893	          0.01000001	          0.35613841	
